<?xml version="1.0" encoding="UTF-8"?>
<svg version="1.1" xmlns="http://www.w3.org/2000/svg" width="1687" height="1855">
<path d="M0 0 C1.41090379 0.46157886 2.82104792 0.92548009 4.23088074 1.39031982 C5.01623797 1.64839794 5.80159521 1.90647606 6.61075115 2.17237473 C10.42343846 3.49307281 14.10416395 5.09063216 17.80078125 6.703125 C18.62171265 7.05735031 19.44264404 7.41157562 20.28845215 7.77653503 C22.04822233 8.53604292 23.80733081 9.29708551 25.56582642 10.05953979 C30.29007961 12.10712035 35.02001762 14.14147776 39.75 16.17578125 C40.7071138 16.58760147 41.6642276 16.99942169 42.65034485 17.42372131 C51.34463642 21.15921224 60.07118687 24.81367431 68.8125 28.4375 C82.25079712 34.01188377 95.6631004 39.64524198 109.0625 45.3125 C123.86270747 51.57131143 138.67375844 57.80311096 153.5 64 C168.13656975 70.11857016 182.76163716 76.26370111 197.375 82.4375 C198.77150787 83.02747269 198.77150787 83.02747269 200.19622803 83.62936401 C207.7424077 86.81767347 215.28784476 90.00773893 222.83325195 93.19787598 C229.43015447 95.98690513 236.02737641 98.77517701 242.625 101.5625 C243.5545047 101.95523102 244.4840094 102.34796204 245.44168091 102.75259399 C255.61471108 107.05001734 265.79193349 111.33710867 275.98046875 115.59765625 C276.89292358 115.97924393 277.80537842 116.3608316 278.7454834 116.75398254 C282.99106341 118.52894241 287.23731797 120.30225826 291.48486328 122.07250977 C310.3636707 129.95521622 329.16998814 137.99724496 348 146 C348 246.32 348 346.64 348 450 C333.085725 456.88351154 333.085725 456.88351154 325.90625 459.85546875 C325.09334503 460.19451233 324.28044006 460.53355591 323.44290161 460.88287354 C321.70204886 461.60872723 319.96075756 462.33352993 318.21905518 463.05734253 C313.4536816 465.03803884 308.69193295 467.02742228 303.9296875 469.015625 C302.4502919 469.63291725 302.4502919 469.63291725 300.94100952 470.26268005 C290.49016767 474.62549012 280.05642711 479.02851421 269.625 483.4375 C267.7462608 484.23129269 265.86751729 485.02507521 263.98876953 485.81884766 C258.32555085 488.21186624 252.66273657 490.60584084 247 493 C239.45871164 496.18839564 231.91717827 499.37620993 224.375 502.5625 C223.44383362 502.95589569 222.51266724 503.34929138 221.55328369 503.75460815 C206.99157213 509.90526548 192.41467191 516.01898176 177.83044434 522.11602783 C164.08412229 527.86350183 150.3498992 533.63905591 136.625 539.4375 C135.69399475 539.83081512 134.7629895 540.22413025 133.80377197 540.62936401 C127.20210631 543.41861022 120.60098988 546.20915495 114 549 C87.04193349 560.39765216 60.07219644 571.76603055 33.06459045 583.04588318 C28.67330671 584.88048577 24.28408955 586.71982811 19.89836121 588.56767273 C18.12906244 589.31303279 16.35910271 590.0568233 14.58911133 590.80053711 C12.56434426 591.65144433 10.54064836 592.50490747 8.51831055 593.36157227 C7.665354 593.71920654 6.81239746 594.07684082 5.93359375 594.4453125 C5.21228271 594.74969238 4.49097168 595.05407227 3.74780273 595.36767578 C2 596 2 596 0 596 C0 524.06 0 452.12 0 378 C-1.65 377.67 -3.3 377.34 -5 377 C-6.33154727 376.51026753 -7.64784624 375.97692428 -8.94482422 375.40185547 C-10.05154984 374.91662918 -10.05154984 374.91662918 -11.18063354 374.42160034 C-11.96407135 374.0736441 -12.74750916 373.72568787 -13.5546875 373.3671875 C-15.23797028 372.63600243 -16.9215742 371.90555632 -18.60546875 371.17578125 C-21.24420311 370.02664707 -23.88036749 368.87261898 -26.51123047 367.70556641 C-29.06097342 366.57738267 -31.61924878 365.47083949 -34.1796875 364.3671875 C-34.95907684 364.0151828 -35.73846619 363.6631781 -36.54147339 363.30050659 C-42.74562262 360.65600362 -46.82082411 360.89457162 -53.26635742 363.13574219 C-54.36826416 363.60141602 -55.4701709 364.06708984 -56.60546875 364.546875 C-57.21078934 364.79995422 -57.81610992 365.05303345 -58.43977356 365.31378174 C-60.3590008 366.1182233 -62.27324988 366.93379613 -64.1875 367.75 C-65.45085352 368.28200662 -66.71452364 368.81326209 -67.97851562 369.34375 C-70.34992784 370.34011389 -72.71895068 371.34151424 -75.08666992 372.34667969 C-80.38280779 374.58421451 -85.69285849 376.78869104 -91 379 C-91.33 608.68 -91.66 838.36 -92 1075 C-95.4591937 1074.30816126 -97.87114061 1073.77009512 -100.984375 1072.44384766 C-101.74148773 1072.1240947 -102.49860046 1071.80434174 -103.27865601 1071.47489929 C-104.50197128 1070.94978508 -104.50197128 1070.94978508 -105.75 1070.4140625 C-106.61879791 1070.0456575 -107.48759583 1069.6772525 -108.38272095 1069.29768372 C-111.25699862 1068.07776266 -114.12844255 1066.85130879 -117 1065.625 C-119.02631458 1064.76389733 -121.05284819 1063.90330989 -123.07958984 1063.04321289 C-127.29449275 1061.25399846 -131.50844081 1059.46256285 -135.72167969 1057.66943359 C-144.4219078 1053.96818073 -153.13143937 1050.28900262 -161.84204102 1046.61224365 C-164.64682859 1045.42828571 -167.45134872 1044.24369577 -170.25585938 1043.05908203 C-182.99333655 1037.68069258 -195.7434493 1032.33297201 -208.5 1027 C-223.13644309 1020.88112483 -237.76163576 1014.73629948 -252.375 1008.5625 C-253.30600525 1008.16918488 -254.2370105 1007.77586975 -255.19622803 1007.37063599 C-262.7424077 1004.18232653 -270.28784476 1000.99226107 -277.83325195 997.80212402 C-284.43015446 995.01309487 -291.02735054 992.22476175 -297.625 989.4375 C-298.55616638 989.04410431 -299.48733276 988.65070862 -300.44671631 988.24539185 C-314.11993871 982.47001955 -327.8056315 976.72503379 -341.5 971 C-356.13644309 964.88112483 -370.76163576 958.73629948 -385.375 952.5625 C-386.30600525 952.16918488 -387.2370105 951.77586975 -388.19622803 951.37063599 C-395.7424077 948.18232653 -403.28784476 944.99226107 -410.83325195 941.80212402 C-417.43015446 939.01309487 -424.02735054 936.22476175 -430.625 933.4375 C-431.55616638 933.04410431 -432.48733276 932.65070862 -433.44671631 932.24539185 C-447.11993871 926.47001955 -460.8056315 920.72503379 -474.5 915 C-489.13644309 908.88112483 -503.76163576 902.73629948 -518.375 896.5625 C-519.30600525 896.16918488 -520.2370105 895.77586975 -521.19622803 895.37063599 C-528.7424077 892.18232653 -536.28784476 888.99226107 -543.83325195 885.80212402 C-550.43015446 883.01309487 -557.02735054 880.22476175 -563.625 877.4375 C-564.55616638 877.04410431 -565.48733276 876.65070862 -566.44671631 876.24539185 C-580.11993871 870.47001955 -593.8056315 864.72503379 -607.5 859 C-622.13644309 852.88112483 -636.76163576 846.73629948 -651.375 840.5625 C-652.30600525 840.16918488 -653.2370105 839.77586975 -654.19622803 839.37063599 C-661.7424077 836.18232653 -669.28784476 832.99226107 -676.83325195 829.80212402 C-683.43015446 827.01309487 -690.02735054 824.22476175 -696.625 821.4375 C-697.55616638 821.04410431 -698.48733276 820.65070862 -699.44671631 820.24539185 C-713.11993871 814.47001955 -726.8056315 808.72503379 -740.5 803 C-759.82751258 794.91998794 -779.12994457 786.78144669 -798.42506409 778.62442017 C-806.24896319 775.31690276 -814.07423908 772.01265372 -821.89996338 768.7094574 C-826.72147798 766.67431814 -831.54285889 764.63886451 -836.36376953 762.60229492 C-847.46032467 757.91430938 -847.46032467 757.91430938 -858.56282043 753.24041748 C-860.48074243 752.43443657 -862.39827876 751.62754602 -864.31567383 750.8203125 C-866.52951706 749.88863183 -868.74414072 748.95880235 -870.9597168 748.03125 C-871.895979 747.63679688 -872.83224121 747.24234375 -873.796875 746.8359375 C-874.59448242 746.50126465 -875.39208984 746.1665918 -876.21386719 745.82177734 C-878 745 -878 745 -879 744 C-879.09703132 741.77241743 -879.12186673 739.54169074 -879.12025452 737.31199646 C-879.12110894 736.60468748 -879.12196337 735.89737849 -879.12284368 735.1686359 C-879.12450055 732.78093718 -879.11897377 730.39330757 -879.11352539 728.00561523 C-879.11324354 726.30105593 -879.11340122 724.59649649 -879.1139679 722.89193726 C-879.11425594 718.249572 -879.10835806 713.60723235 -879.10139394 708.96487308 C-879.09516159 704.11884105 -879.0945567 699.27280849 -879.09336853 694.42677307 C-879.09025486 685.24344036 -879.082041 676.0601195 -879.07201904 666.87679201 C-879.060859 656.42473229 -879.05534773 645.97267202 -879.05032361 635.52060783 C-879.03985841 614.01373193 -879.02225829 592.50686671 -879 571 C-875.0477487 569.2559165 -871.09473872 567.51355895 -867.14160156 565.77148438 C-866.03523346 565.28323181 -864.92886536 564.79497925 -863.78897095 564.29193115 C-854.67371907 560.27657529 -845.5110152 556.38699644 -836.31323242 552.56518555 C-831.71179065 550.65299482 -827.1139455 548.73218151 -822.515625 546.8125 C-821.566875 546.41663696 -820.618125 546.02077393 -819.640625 545.61291504 C-809.24703878 541.27359279 -798.87336062 536.88739628 -788.5 532.5 C-773.84563401 526.30370157 -759.1796942 520.13604836 -744.5 514 C-729.86346957 507.88133517 -715.23836327 501.73629907 -700.625 495.5625 C-699.69399475 495.16918488 -698.7629895 494.77586975 -697.80377197 494.37063599 C-691.20210631 491.58138978 -684.60098988 488.79084505 -678 486 C-670.45871164 482.81160436 -662.91717827 479.62379007 -655.375 476.4375 C-654.44383362 476.04410431 -653.51266724 475.65070862 -652.55328369 475.24539185 C-638.00266032 469.09941801 -623.43720628 462.98950819 -608.86367798 456.89807129 C-591.6049966 449.6836243 -574.37041377 442.41269754 -557.14181519 435.1267395 C-553.82318515 433.72398397 -550.50353913 432.3236417 -547.18389893 430.92327881 C-545.16380643 430.06925183 -543.14582511 429.21044396 -541.12841797 428.35009766 C-540.04318848 427.89038574 -538.95795898 427.43067383 -537.83984375 426.95703125 C-536.93484131 426.57135986 -536.02983887 426.18568848 -535.09741211 425.78833008 C-533 425 -533 425 -531 425 C-531 532.91 -531 640.82 -531 752 C-528.03 752.99 -525.06 753.98 -522 755 C-519.0241165 756.18311191 -516.06975008 757.38637465 -513.12109375 758.6328125 C-512.27426529 758.98777802 -511.42743683 759.34274353 -510.5549469 759.70846558 C-507.84783342 760.84424857 -505.14267855 761.98461744 -502.4375 763.125 C-500.74556044 763.83491607 -499.05350355 764.54455257 -497.36132812 765.25390625 C-477.88007323 773.43787718 -458.44708739 781.73498786 -439 790 C-439 577.48 -439 364.96 -439 146 C-410.57477027 133.49289892 -410.57477027 133.49289892 -399.29928589 128.84500122 C-395.54704624 127.29780514 -391.79906772 125.74033703 -388.05078125 124.18359375 C-387.25611954 123.85370956 -386.46145782 123.52382538 -385.64271545 123.1839447 C-375.2228303 118.85329868 -364.83081635 114.45642939 -354.4375 110.0625 C-353.5038562 109.66780518 -352.5702124 109.27311035 -351.60827637 108.86645508 C-349.77745015 108.09242491 -347.94666946 107.31828704 -346.11593628 106.54403687 C-344.34449615 105.79521318 -342.57279287 105.04701165 -340.80081177 104.29946899 C-336.37565777 102.4319942 -331.95569455 100.55357364 -327.54345703 98.65576172 C-326.66955826 98.28204941 -325.79565948 97.9083371 -324.89527893 97.52330017 C-323.23759447 96.81425114 -321.58167525 96.10105603 -319.92784119 95.3830719 C-314.33802087 93 -314.33802087 93 -311 93 C-310.67 340.83 -310.34 588.66 -310 844 C-280.71955864 856.4609498 -280.71955864 856.4609498 -251.40625 868.84375 C-249.14030064 869.79610553 -246.8748137 870.74955541 -244.609375 871.703125 C-243.09898269 872.33859955 -241.58856709 872.97401876 -240.078125 873.609375 C-239.43433899 873.88021912 -238.79055298 874.15106323 -238.1272583 874.43011475 C-232.09045345 876.96708791 -226.04461808 879.48140913 -220 882 C-220 687.96 -220 493.92 -220 294 C-213.00065672 290.50032836 -206.20413562 287.10417706 -199.00390625 284.14453125 C-198.1894957 283.80544235 -197.37508514 283.46635345 -196.53599548 283.11698914 C-194.78941248 282.39027408 -193.04204363 281.66544521 -191.29394531 280.94238281 C-187.50571341 279.37535231 -183.72146749 277.79879814 -179.9369812 276.2227478 C-177.95012541 275.39533952 -175.96308314 274.56837886 -173.9758606 273.74185181 C-163.46663276 269.36870483 -152.98289578 264.93580204 -142.5 260.5 C-131.20427079 255.72252086 -119.90520636 250.95347881 -108.58984375 246.22265625 C-107.65809326 245.83297165 -106.72634277 245.44328705 -105.76635742 245.04179382 C-101.19375354 243.13012607 -96.61975721 241.22189449 -92.04345703 239.3190918 C-84.12351796 236.02090517 -76.22821008 232.68818427 -68.40234375 229.171875 C-67.10174027 228.59280105 -65.80104371 228.01393609 -64.50024414 227.43530273 C-62.17747845 226.3955409 -59.86201729 225.33920837 -57.55639648 224.26196289 C-49.55969253 220.69335968 -44.91690236 220.17744967 -36.71533203 223.2175293 C-33.38401827 224.5521681 -30.10325531 225.99147479 -26.82672119 227.45471191 C-23.76076209 228.82327215 -20.68273171 230.16367693 -17.60519409 231.50595093 C-15.95629681 232.22522578 -14.30797103 232.94581204 -12.66018677 233.66763306 C-4.08289806 237.41963458 4.55097451 241.03243966 13.19287109 244.63256836 C17.74461312 246.52892038 22.29416895 248.43050186 26.84375 250.33203125 C27.76075684 250.71521515 28.67776367 251.09839905 29.62255859 251.49319458 C43.18857368 257.16515642 56.7296846 262.89623896 70.2734375 268.62109375 C89.51331439 276.75286492 108.75715921 284.875245 128 293 C128 329.3 128 365.6 128 403 C141.2 397.39 154.4 391.78 168 386 C182.41093224 379.90989759 182.41093224 379.90989759 188.89477539 377.19189453 C190.64606124 376.45707752 192.39667404 375.72065503 194.14672852 374.98291016 C196.80350985 373.86298999 199.4620702 372.74739675 202.12109375 371.6328125 C202.88973251 371.30789825 203.65837128 370.98298401 204.45030212 370.64822388 C209.59428565 368.50033007 214.67917815 366.77360728 220 365 C220 320.78 220 276.56 220 231 C218.35 230.67 216.7 230.34 215 230 C213.64591428 229.51712846 212.30615922 228.99216685 210.98388672 228.42797852 C210.2203891 228.10503311 209.45689148 227.78208771 208.67025757 227.44935608 C207.84836945 227.09610764 207.02648132 226.74285919 206.1796875 226.37890625 C205.30551178 226.00781235 204.43133606 225.63671844 203.53067017 225.25437927 C201.63732683 224.45004941 199.74489324 223.64357544 197.85327148 222.83520508 C193.79331337 221.10026274 189.7290342 219.37555393 185.66497803 217.65023804 C183.55786213 216.75560111 181.45097178 215.86043279 179.34429932 214.9647522 C169.95400043 210.97375311 160.54471456 207.02914207 151.12927246 203.09790039 C135.61385692 196.6191573 120.1132699 190.10586198 104.625 183.5625 C103.69632111 183.17018188 102.76764221 182.77786377 101.81082153 182.37365723 C93.2802057 178.76957032 84.75053536 175.16324806 76.22119141 171.55615234 C71.40913135 169.52117145 66.59681465 167.48679878 61.78424072 165.45303345 C59.89807821 164.65594063 58.01196913 163.85872135 56.12591553 163.06137085 C46.16380504 158.85057626 36.1953838 154.65602478 26.20703125 150.5078125 C25.35564072 150.15408569 24.50425018 149.80035889 23.62705994 149.43591309 C19.61880284 147.77134699 15.6092026 146.11013354 11.59741211 144.45410156 C10.19512995 143.87309464 8.79286641 143.29204278 7.390625 142.7109375 C6.17407227 142.20868652 4.95751953 141.70643555 3.70410156 141.18896484 C1 140 1 140 0 139 C-0.09639184 137.20305962 -0.12187425 135.40229107 -0.12025452 133.60276794 C-0.12162918 132.43182587 -0.12300385 131.26088379 -0.12442017 130.05445862 C-0.12082489 128.75830124 -0.11722961 127.46214386 -0.11352539 126.12670898 C-0.11324352 124.75712079 -0.11340125 123.38753244 -0.1139679 122.01794434 C-0.11425588 118.28877052 -0.10835909 114.55962859 -0.10139394 110.83046222 C-0.09516047 106.93735587 -0.09455661 103.04424887 -0.09336853 99.15113831 C-0.09025519 91.77401854 -0.08204178 84.39691351 -0.07201904 77.01980025 C-0.06085797 68.62332457 -0.05534747 60.22684821 -0.05032361 51.83036697 C-0.03985916 34.55356944 -0.02225968 17.27678628 0 0 Z M-668.43359375 621.0859375 C-669.20239365 621.4146434 -669.97119354 621.7433493 -670.76329041 622.08201599 C-672.44030742 622.79932594 -674.11665489 623.51820275 -675.79241943 624.23843384 C-680.307482 626.17851362 -684.82778997 628.10630066 -689.34765625 630.03515625 C-690.29229736 630.43858749 -691.23693848 630.84201874 -692.21020508 631.25767517 C-702.91172895 635.8238529 -713.64153754 640.32203032 -724.375 644.8125 C-725.29006317 645.19581482 -726.20512634 645.57912964 -727.1479187 645.97406006 C-745.72969355 653.75740349 -745.72969355 653.75740349 -754 657 C-750.32735685 660.15573476 -746.21361097 661.75062597 -741.78515625 663.5625 C-740.95761337 663.90664948 -740.1300705 664.25079895 -739.27745056 664.6053772 C-736.54126256 665.74212894 -733.80192908 666.87108381 -731.0625 668 C-727.17745712 669.60974454 -723.29386985 671.22298907 -719.41015625 672.8359375 C-718.40473785 673.2528183 -717.39931946 673.6696991 -716.36343384 674.09921265 C-708.97483551 677.16662278 -701.60638665 680.27940158 -694.24609375 683.4140625 C-693.21476822 683.85264587 -692.18344269 684.29122925 -691.12086487 684.74310303 C-683.0362724 688.18137385 -683.0362724 688.18137385 -679.0071106 689.90625 C-676.21506551 691.10109466 -673.4203372 692.28944468 -670.625 693.4765625 C-669.79258286 693.8350528 -668.96016571 694.19354309 -668.1025238 694.56289673 C-667.33908157 694.8858371 -666.57563934 695.20877747 -665.7890625 695.54150391 C-665.12600098 695.82474518 -664.46293945 696.10798645 -663.77978516 696.39981079 C-661.8392579 697.15977263 -661.8392579 697.15977263 -659 697 C-659 670.93 -659 644.86 -659 618 C-662.38521941 618 -665.36460355 619.75943813 -668.43359375 621.0859375 Z " fill="#08A183" transform="translate(891,520)"/>
<path d="M0 0 C0.87417572 0.3710939 1.74835144 0.74218781 2.64901733 1.12452698 C4.54236067 1.92885684 6.43479426 2.73533081 8.32641602 3.54370117 C12.38637413 5.27864351 16.4506533 7.00335232 20.51470947 8.72866821 C22.62182537 9.62330514 24.72871572 10.51847346 26.83538818 11.41415405 C36.22568707 15.40515314 45.63497294 19.34976418 55.05041504 23.28100586 C70.56583028 29.75974882 86.06644086 36.27298973 101.5546875 42.81640625 C102.95119537 43.40637894 102.95119537 43.40637894 104.37591553 44.00827026 C111.9220952 47.19657972 119.46753226 50.38664518 127.01293945 53.57678223 C133.60984196 56.36581138 140.20703804 59.1541445 146.8046875 61.94140625 C147.73585388 62.33480194 148.66702026 62.72819763 149.62640381 63.1335144 C163.29962621 68.9088867 176.985319 74.65387246 190.6796875 80.37890625 C205.31613059 86.49778142 219.94132326 92.64260677 234.5546875 98.81640625 C235.95119537 99.40637894 235.95119537 99.40637894 237.37591553 100.00827026 C244.9220952 103.19657972 252.46753226 106.38664518 260.01293945 109.57678223 C266.60984196 112.36581138 273.20703804 115.1541445 279.8046875 117.94140625 C280.73585388 118.33480194 281.66702026 118.72819763 282.62640381 119.1335144 C296.29962621 124.9088867 309.985319 130.65387246 323.6796875 136.37890625 C338.31613059 142.49778142 352.94132326 148.64260677 367.5546875 154.81640625 C368.48569275 155.20972137 369.416698 155.6030365 370.37591553 156.00827026 C377.9220952 159.19657972 385.46753226 162.38664518 393.01293945 165.57678223 C399.60984196 168.36581138 406.20703804 171.1541445 412.8046875 173.94140625 C413.73585388 174.33480194 414.66702026 174.72819763 415.62640381 175.1335144 C429.29962621 180.9088867 442.985319 186.65387246 456.6796875 192.37890625 C471.31613059 198.49778142 485.94132326 204.64260677 500.5546875 210.81640625 C501.48569275 211.20972137 502.416698 211.6030365 503.37591553 212.00827026 C510.9220952 215.19657972 518.46753226 218.38664518 526.01293945 221.57678223 C532.60984196 224.36581138 539.20703804 227.1541445 545.8046875 229.94140625 C546.73585388 230.33480194 547.66702026 230.72819763 548.62640381 231.1335144 C562.29962621 236.9088867 575.985319 242.65387246 589.6796875 248.37890625 C604.31613059 254.49778142 618.94132326 260.64260677 633.5546875 266.81640625 C634.95119537 267.40637894 634.95119537 267.40637894 636.37591553 268.00827026 C643.9220952 271.19657972 651.46753226 274.38664518 659.01293945 277.57678223 C665.60984196 280.36581138 672.20703804 283.1541445 678.8046875 285.94140625 C679.73585388 286.33480194 680.66702026 286.72819763 681.62640381 287.1335144 C696.18340323 293.28218138 710.75534506 299.39451083 725.33514404 305.4888916 C741.12000779 312.08766365 756.88585452 318.73081125 772.64257812 325.39648438 C788.47438727 332.09111208 804.32770396 338.73130025 820.1796875 345.37890625 C820.1796875 391.24890625 820.1796875 437.11890625 820.1796875 484.37890625 C816.79806518 483.70258179 814.41999334 483.19710613 811.37890625 481.91455078 C810.3032692 481.46493736 810.3032692 481.46493736 809.2059021 481.00624084 C808.43412628 480.67804855 807.66235046 480.34985626 806.8671875 480.01171875 C806.04296295 479.66560043 805.2187384 479.31948212 804.36953735 478.96287537 C801.63768516 477.81434687 798.908703 476.65915702 796.1796875 475.50390625 C794.24674846 474.6896276 792.31363989 473.87575127 790.38037109 473.06225586 C785.31486975 470.92936804 780.25178806 468.79079771 775.18933105 466.6506958 C770.42948818 464.63932192 765.66776508 462.63241117 760.90625 460.625 C748.71657091 455.48428218 736.53146312 450.33276123 724.34643555 445.18103027 C717.74953304 442.39200112 711.15233696 439.603668 704.5546875 436.81640625 C703.62352112 436.42301056 702.69235474 436.02961487 701.73297119 435.6242981 C688.05974879 429.8489258 674.374056 424.10394004 660.6796875 418.37890625 C646.04324441 412.26003108 631.41805174 406.11520573 616.8046875 399.94140625 C615.40817963 399.35143356 615.40817963 399.35143356 613.98345947 398.74954224 C606.4372798 395.56123278 598.89184274 392.37116732 591.34643555 389.18103027 C584.74953304 386.39200112 578.15233696 383.603668 571.5546875 380.81640625 C570.62352112 380.42301056 569.69235474 380.02961487 568.73297119 379.6242981 C555.05974879 373.8489258 541.374056 368.10394004 527.6796875 362.37890625 C513.04324441 356.26003108 498.41805174 350.11520573 483.8046875 343.94140625 C482.40817963 343.35143356 482.40817963 343.35143356 480.98345947 342.74954224 C473.4372798 339.56123278 465.89184274 336.37116732 458.34643555 333.18103027 C451.74953304 330.39200112 445.15233696 327.603668 438.5546875 324.81640625 C437.62352112 324.42301056 436.69235474 324.02961487 435.73297119 323.6242981 C422.05974879 317.8489258 408.374056 312.10394004 394.6796875 306.37890625 C380.04324441 300.26003108 365.41805174 294.11520573 350.8046875 287.94140625 C349.40817963 287.35143356 349.40817963 287.35143356 347.98345947 286.74954224 C340.4372798 283.56123278 332.89184274 280.37116732 325.34643555 277.18103027 C318.74953304 274.39200112 312.15233696 271.603668 305.5546875 268.81640625 C304.62352112 268.42301056 303.69235474 268.02961487 302.73297119 267.6242981 C289.05974879 261.8489258 275.374056 256.10394004 261.6796875 250.37890625 C247.04324441 244.26003108 232.41805174 238.11520573 217.8046875 231.94140625 C216.87368225 231.54809113 215.942677 231.154776 214.98345947 230.74954224 C207.4372798 227.56123278 199.89184274 224.37116732 192.34643555 221.18103027 C185.74953304 218.39200112 179.15233696 215.603668 172.5546875 212.81640625 C171.62352112 212.42301056 170.69235474 212.02961487 169.73297119 211.6242981 C156.05974879 205.8489258 142.374056 200.10394004 128.6796875 194.37890625 C114.04324394 188.26003089 99.41809557 182.1151027 84.8046875 175.94140625 C83.87833496 175.55008514 82.95198242 175.15876404 81.99755859 174.75558472 C73.42685241 171.13471488 64.85708892 167.51161739 56.28808594 163.88671875 C55.309617 163.47284409 54.33114807 163.05896942 53.32302856 162.6325531 C51.35232371 161.79893072 49.38168128 160.96516073 47.41110229 160.13124084 C42.61303277 158.10150347 37.81323582 156.07606649 33.00927734 154.06030273 C31.17539295 153.29035135 29.34157026 152.52025294 27.5078125 151.75 C26.6230423 151.37838242 25.73827209 151.00676483 24.82669067 150.62388611 C19.97958552 148.58113922 15.1536022 146.49860447 10.34887695 144.358078 C7.66127628 143.16262052 4.96524702 141.98702505 2.26782227 140.81393433 C0.49941543 140.03463391 -1.25554979 139.22504623 -3.00976562 138.41430664 C-4.05583984 137.96176514 -5.10191406 137.50922363 -6.1796875 137.04296875 C-7.06108398 136.6454541 -7.94248047 136.24793945 -8.85058594 135.83837891 C-13.32765181 135.14569246 -16.69318468 136.70675875 -20.8203125 138.37890625 C-21.49348511 138.64652771 -22.16665771 138.91414917 -22.86022949 139.18988037 C-24.89732952 140.02123264 -26.91802677 140.88455498 -28.9375 141.7578125 C-29.69480911 142.08159378 -30.45211823 142.40537506 -31.2323761 142.7389679 C-32.86595187 143.43767275 -34.49887365 144.13790828 -36.13119507 144.83953857 C-40.60100125 146.76033006 -45.07613682 148.66863827 -49.55078125 150.578125 C-50.48100601 150.97537781 -51.41123077 151.37263062 -52.36964417 151.78192139 C-62.2286345 155.98812635 -72.11666164 160.1240373 -82.0078125 164.25390625 C-96.74922801 170.41257332 -111.47880706 176.59844074 -126.1953125 182.81640625 C-127.12586456 183.2095401 -128.05641663 183.60267395 -129.01516724 184.00772095 C-135.61728986 186.79715219 -142.21886859 189.58786924 -148.8203125 192.37890625 C-156.36160086 195.56730189 -163.90313423 198.75511618 -171.4453125 201.94140625 C-172.84206207 202.53149979 -172.84206207 202.53149979 -174.26702881 203.1335144 C-188.82874037 209.28417173 -203.40564059 215.39788801 -217.98986816 221.49493408 C-231.73619021 227.24240808 -245.4704133 233.01796216 -259.1953125 238.81640625 C-260.12631775 239.20972137 -261.057323 239.6030365 -262.01654053 240.00827026 C-268.61820619 242.79751647 -275.21932262 245.5880612 -281.8203125 248.37890625 C-289.36160086 251.56730189 -296.90313423 254.75511618 -304.4453125 257.94140625 C-305.37647888 258.33480194 -306.30764526 258.72819763 -307.26702881 259.1335144 C-321.82874037 265.28417173 -336.40564059 271.39788801 -350.98986816 277.49493408 C-364.73619021 283.24240808 -378.4704133 289.01796216 -392.1953125 294.81640625 C-393.12631775 295.20972137 -394.057323 295.6030365 -395.01654053 296.00827026 C-401.61820619 298.79751647 -408.21932262 301.5880612 -414.8203125 304.37890625 C-422.36160086 307.56730189 -429.90313423 310.75511618 -437.4453125 313.94140625 C-438.37647888 314.33480194 -439.30764526 314.72819763 -440.26702881 315.1335144 C-454.82874037 321.28417173 -469.40564059 327.39788801 -483.98986816 333.49493408 C-497.73619021 339.24240808 -511.4704133 345.01796216 -525.1953125 350.81640625 C-526.12631775 351.20972137 -527.057323 351.6030365 -528.01654053 352.00827026 C-534.61820619 354.79751647 -541.21932262 357.5880612 -547.8203125 360.37890625 C-555.36160086 363.56730189 -562.90313423 366.75511618 -570.4453125 369.94140625 C-571.37647888 370.33480194 -572.30764526 370.72819763 -573.26702881 371.1335144 C-587.82874037 377.28417173 -602.40564059 383.39788801 -616.98986816 389.49493408 C-630.73619021 395.24240808 -644.4704133 401.01796216 -658.1953125 406.81640625 C-659.12631775 407.20972137 -660.057323 407.6030365 -661.01654053 408.00827026 C-667.61820619 410.79751647 -674.21932262 413.5880612 -680.8203125 416.37890625 C-688.36160086 419.56730189 -695.90313423 422.75511618 -703.4453125 425.94140625 C-704.37647888 426.33480194 -705.30764526 426.72819763 -706.26702881 427.1335144 C-720.82333591 433.28188896 -735.39432508 439.39456553 -749.97375488 445.48788452 C-763.0946471 450.97203339 -776.20094937 456.48983239 -789.29864502 462.02914429 C-797.47033422 465.48427822 -805.64478834 468.93285787 -813.8203125 472.37890625 C-814.61590576 472.71440491 -815.41149902 473.04990356 -816.23120117 473.39556885 C-820.5058188 475.19741807 -824.78262596 476.99382748 -829.06378174 478.78009033 C-830.88952706 479.5430928 -832.71311085 480.31126105 -834.53662109 481.07958984 C-835.60219238 481.52254395 -836.66776367 481.96549805 -837.765625 482.421875 C-838.67844238 482.8036792 -839.59125977 483.1854834 -840.53173828 483.57885742 C-842.8203125 484.37890625 -842.8203125 484.37890625 -845.8203125 484.37890625 C-845.8203125 438.83890625 -845.8203125 393.29890625 -845.8203125 346.37890625 C-839.5672801 343.25239005 -833.45542892 340.27447606 -827.01953125 337.62109375 C-825.79380653 337.11040596 -825.79380653 337.11040596 -824.5433197 336.58940125 C-822.7847394 335.85708495 -821.02550973 335.12632642 -819.26568604 334.39700317 C-814.45923335 332.40480113 -809.65783232 330.40047144 -804.85546875 328.3984375 C-803.85992981 327.9838176 -802.86439087 327.56919769 -801.83868408 327.14201355 C-791.35978766 322.77594763 -780.90137391 318.36181681 -770.4453125 313.94140625 C-768.56682723 313.14767175 -766.68832782 312.35397072 -764.80981445 311.56030273 C-759.14633891 309.16723284 -753.4832854 306.77316532 -747.8203125 304.37890625 C-740.27902414 301.19051061 -732.73749077 298.00269632 -725.1953125 294.81640625 C-724.26414612 294.42301056 -723.33297974 294.02961487 -722.37359619 293.6242981 C-707.81188463 287.47364077 -693.23498441 281.35992449 -678.65075684 275.26287842 C-664.90443479 269.51540442 -651.1702117 263.73985034 -637.4453125 257.94140625 C-636.51430725 257.54809113 -635.583302 257.154776 -634.62408447 256.74954224 C-628.02241881 253.96029603 -621.42130238 251.1697513 -614.8203125 248.37890625 C-607.27902414 245.19051061 -599.73749077 242.00269632 -592.1953125 238.81640625 C-591.26414612 238.42301056 -590.33297974 238.02961487 -589.37359619 237.6242981 C-574.81188463 231.47364077 -560.23498441 225.35992449 -545.65075684 219.26287842 C-531.90443479 213.51540442 -518.1702117 207.73985034 -504.4453125 201.94140625 C-503.51430725 201.54809113 -502.583302 201.154776 -501.62408447 200.74954224 C-495.02241881 197.96029603 -488.42130238 195.1697513 -481.8203125 192.37890625 C-474.27902414 189.19051061 -466.73749077 186.00269632 -459.1953125 182.81640625 C-458.26414612 182.42301056 -457.33297974 182.02961487 -456.37359619 181.6242981 C-441.81188463 175.47364077 -427.23498441 169.35992449 -412.65075684 163.26287842 C-398.90443479 157.51540442 -385.1702117 151.73985034 -371.4453125 145.94140625 C-370.51430725 145.54809113 -369.583302 145.154776 -368.62408447 144.74954224 C-362.02241881 141.96029603 -355.42130238 139.1697513 -348.8203125 136.37890625 C-341.27902414 133.19051061 -333.73749077 130.00269632 -326.1953125 126.81640625 C-324.79856293 126.22631271 -324.79856293 126.22631271 -323.37359619 125.6242981 C-308.81188463 119.47364077 -294.23498441 113.35992449 -279.65075684 107.26287842 C-265.90443479 101.51540442 -252.1702117 95.73985034 -238.4453125 89.94140625 C-237.51430725 89.54809113 -236.583302 89.154776 -235.62408447 88.74954224 C-229.02241881 85.96029603 -222.42130238 83.1697513 -215.8203125 80.37890625 C-208.27902414 77.19051061 -200.73749077 74.00269632 -193.1953125 70.81640625 C-191.79856293 70.22631271 -191.79856293 70.22631271 -190.37359619 69.6242981 C-175.81188463 63.47364077 -161.23498441 57.35992449 -146.65075684 51.26287842 C-132.90443492 45.51540447 -119.17019867 39.73988104 -105.4453125 33.94140625 C-104.52062164 33.55074982 -103.59593079 33.16009338 -102.64321899 32.75759888 C-97.00019306 30.37331787 -91.35755279 27.98812514 -85.71502686 25.60266113 C-80.75155511 23.50432878 -75.7879202 21.40638266 -70.82421875 19.30859375 C-69.83746155 18.89149643 -68.85070435 18.47439911 -67.83404541 18.04466248 C-62.99291652 15.99873348 -58.15096675 13.95479112 -53.30712891 11.9152832 C-51.48207794 11.14669086 -49.65704496 10.3780558 -47.83203125 9.609375 C-46.52295807 9.05806664 -46.52295807 9.05806664 -45.18743896 8.49562073 C-40.67501073 6.59249963 -36.1699021 4.67424336 -31.67683411 2.72584534 C-29.92465273 1.966444 -28.17002654 1.21269106 -26.4152832 0.45922852 C-24.43910584 -0.39019883 -22.46709218 -1.24942445 -20.50073242 -2.12133789 C-19.25126831 -2.65488892 -19.25126831 -2.65488892 -17.9765625 -3.19921875 C-17.28369141 -3.5024707 -16.59082031 -3.80572266 -15.87695312 -4.11816406 C-10.42792897 -5.45066522 -4.91331092 -2.11174658 0 0 Z " fill="#D5B54E" transform="translate(857.8203125,265.62109375)"/>
<path d="M0 0 C0.85775528 0.3784758 1.71551056 0.7569516 2.59925842 1.14689636 C4.40409424 1.94410779 6.2029833 2.75490795 7.99591064 3.57855225 C11.4113062 5.13170987 14.86832772 6.57033496 18.33416748 8.00648499 C22.77444962 9.84860546 27.19572702 11.73568322 31.62109375 13.61328125 C33.57917338 14.44219078 35.53734619 15.2708802 37.49560547 16.09936523 C41.54643816 17.81340168 45.59687792 19.52836121 49.64697266 21.24414062 C59.19824866 25.29000075 68.75309279 29.32741167 78.30859375 33.36328125 C79.23767548 33.75577057 80.1667572 34.14825989 81.12399292 34.55264282 C94.7993157 40.32894449 108.48710642 46.07486166 122.18359375 51.80078125 C136.82003684 57.91965642 151.44522951 64.06448177 166.05859375 70.23828125 C167.45510162 70.82825394 167.45510162 70.82825394 168.87982178 71.43014526 C176.42600145 74.61845472 183.97143851 77.80852018 191.5168457 80.99865723 C198.11374821 83.78768638 204.71094429 86.5760195 211.30859375 89.36328125 C212.23976013 89.75667694 213.17092651 90.15007263 214.13031006 90.5553894 C227.80353246 96.3307617 241.48922525 102.07574746 255.18359375 107.80078125 C269.82003684 113.91965642 284.44522951 120.06448177 299.05859375 126.23828125 C299.989599 126.63159637 300.92060425 127.0249115 301.87982178 127.43014526 C309.42600145 130.61845472 316.97143851 133.80852018 324.5168457 136.99865723 C331.11374821 139.78768638 337.71094429 142.5760195 344.30859375 145.36328125 C345.23976013 145.75667694 346.17092651 146.15007263 347.13031006 146.5553894 C360.80353246 152.3307617 374.48922525 158.07574746 388.18359375 163.80078125 C402.82003684 169.91965642 417.44522951 176.06448177 432.05859375 182.23828125 C432.989599 182.63159637 433.92060425 183.0249115 434.87982178 183.43014526 C442.42600145 186.61845472 449.97143851 189.80852018 457.5168457 192.99865723 C464.11374821 195.78768638 470.71094429 198.5760195 477.30859375 201.36328125 C478.23976013 201.75667694 479.17092651 202.15007263 480.13031006 202.5553894 C493.80353246 208.3307617 507.48922525 214.07574746 521.18359375 219.80078125 C535.82003684 225.91965642 550.44522951 232.06448177 565.05859375 238.23828125 C565.989599 238.63159637 566.92060425 239.0249115 567.87982178 239.43014526 C575.42600145 242.61845472 582.97143851 245.80852018 590.5168457 248.99865723 C597.11374822 251.78768638 603.71098623 254.57592021 610.30859375 257.36328125 C611.23411041 257.75435059 612.15962708 258.14541992 613.1131897 258.54833984 C626.22790953 264.08881587 639.35544712 269.59793332 652.49182129 275.08685303 C657.81822385 277.31356455 663.14264052 279.54501869 668.46670532 281.77731323 C672.28690816 283.37886215 676.10781505 284.97860208 679.93212891 286.5703125 C711.04218486 299.52533141 738.2128381 314.45629469 762.68359375 337.80078125 C763.53566406 338.6 764.38773438 339.39921875 765.265625 340.22265625 C799.444822 373.16386658 822.90876087 424.11067399 823.859375 471.7109375 C823.89681025 476.74431466 823.81998926 481.76930244 823.68359375 486.80078125 C813.30625038 482.93947199 803.12246537 478.66208859 792.93334961 474.33422852 C787.9327711 472.21041594 782.9291227 470.09385588 777.92578125 467.9765625 C776.90139954 467.54288361 775.87701782 467.10920471 774.82159424 466.66238403 C764.62103584 462.34615912 754.40352817 458.07087373 744.18359375 453.80078125 C729.54681811 447.68270707 714.92195428 441.53707916 700.30859375 435.36328125 C698.91208588 434.77330856 698.91208588 434.77330856 697.48736572 434.17141724 C689.94118605 430.98310778 682.39574899 427.79304232 674.8503418 424.60290527 C668.25343929 421.81387612 661.65624321 419.025543 655.05859375 416.23828125 C654.12742737 415.84488556 653.19626099 415.45148987 652.23687744 415.0461731 C638.56365504 409.2708008 624.87796225 403.52581504 611.18359375 397.80078125 C596.54715066 391.68190608 581.92195799 385.53708073 567.30859375 379.36328125 C565.91208588 378.77330856 565.91208588 378.77330856 564.48736572 378.17141724 C556.94118605 374.98310778 549.39574899 371.79304232 541.8503418 368.60290527 C535.25343929 365.81387612 528.65624321 363.025543 522.05859375 360.23828125 C521.12742737 359.84488556 520.19626099 359.45148987 519.23687744 359.0461731 C505.56365504 353.2708008 491.87796225 347.52581504 478.18359375 341.80078125 C463.54715066 335.68190608 448.92195799 329.53708073 434.30859375 323.36328125 C432.91208588 322.77330856 432.91208588 322.77330856 431.48736572 322.17141724 C423.94118605 318.98310778 416.39574899 315.79304232 408.8503418 312.60290527 C402.25343929 309.81387612 395.65624321 307.025543 389.05859375 304.23828125 C388.12742737 303.84488556 387.19626099 303.45148987 386.23687744 303.0461731 C372.56365504 297.2708008 358.87796225 291.52581504 345.18359375 285.80078125 C330.54715066 279.68190608 315.92195799 273.53708073 301.30859375 267.36328125 C299.91208588 266.77330856 299.91208588 266.77330856 298.48736572 266.17141724 C290.94118605 262.98310778 283.39574899 259.79304232 275.8503418 256.60290527 C269.25343929 253.81387612 262.65624321 251.025543 256.05859375 248.23828125 C255.12742737 247.84488556 254.19626099 247.45148987 253.23687744 247.0461731 C239.56365504 241.2708008 225.87796225 235.52581504 212.18359375 229.80078125 C197.54715066 223.68190608 182.92195799 217.53708073 168.30859375 211.36328125 C167.3775885 210.96996613 166.44658325 210.576651 165.48736572 210.17141724 C157.94118605 206.98310778 150.39574899 203.79304232 142.8503418 200.60290527 C136.25343929 197.81387612 129.65624321 195.025543 123.05859375 192.23828125 C122.12742737 191.84488556 121.19626099 191.45148987 120.23687744 191.0461731 C105.68292651 184.89879375 91.11441833 178.78680571 76.53720093 172.69482422 C66.26954562 168.40358784 56.0077734 164.0989797 45.7578125 159.765625 C44.76133698 159.34439362 43.76486145 158.92316223 42.7381897 158.48916626 C37.08492678 156.09877478 31.43199416 153.70761879 25.78312683 151.30685425 C24.04370164 150.57382359 22.30028137 149.85019845 20.55293274 149.13626099 C15.98812595 147.26277669 11.58325409 145.26185742 7.21166992 142.97021484 C-1.0655186 138.79812764 -7.92424166 135.47464671 -17.1341095 138.38778687 C-21.68819079 140.18375126 -26.01816911 142.33398197 -30.37890625 144.55078125 C-32.32407181 145.46527114 -34.2732469 146.37127471 -36.22607422 147.26928711 C-40.27096131 149.13729333 -44.29636791 151.04019402 -48.31201172 152.97021484 C-56.79461684 157.01298616 -65.46380725 160.59921576 -74.1413269 164.1986084 C-78.83582081 166.15124935 -83.51640119 168.1367519 -88.19921875 170.1171875 C-99.95087255 175.07572419 -111.71800455 179.99712596 -123.48596191 184.91680908 C-137.23228396 190.66428308 -150.96650705 196.43983716 -164.69140625 202.23828125 C-165.6224115 202.63159637 -166.55341675 203.0249115 -167.51263428 203.43014526 C-174.11429994 206.21939147 -180.71541637 209.0099362 -187.31640625 211.80078125 C-194.85769461 214.98917689 -202.39922798 218.17699118 -209.94140625 221.36328125 C-211.33815582 221.95337479 -211.33815582 221.95337479 -212.76312256 222.5553894 C-227.32483412 228.70604673 -241.90173434 234.81976301 -256.48596191 240.91680908 C-270.23228396 246.66428308 -283.96650705 252.43983716 -297.69140625 258.23828125 C-298.6224115 258.63159637 -299.55341675 259.0249115 -300.51263428 259.43014526 C-307.11429994 262.21939147 -313.71541637 265.0099362 -320.31640625 267.80078125 C-327.85769461 270.98917689 -335.39922798 274.17699118 -342.94140625 277.36328125 C-343.87257263 277.75667694 -344.80373901 278.15007263 -345.76312256 278.5553894 C-360.32483412 284.70604673 -374.90173434 290.81976301 -389.48596191 296.91680908 C-403.23228396 302.66428308 -416.96650705 308.43983716 -430.69140625 314.23828125 C-431.6224115 314.63159637 -432.55341675 315.0249115 -433.51263428 315.43014526 C-440.11429994 318.21939147 -446.71541637 321.0099362 -453.31640625 323.80078125 C-460.85769461 326.98917689 -468.39922798 330.17699118 -475.94140625 333.36328125 C-476.87257263 333.75667694 -477.80373901 334.15007263 -478.76312256 334.5553894 C-493.32483412 340.70604673 -507.90173434 346.81976301 -522.48596191 352.91680908 C-536.23228396 358.66428308 -549.96650705 364.43983716 -563.69140625 370.23828125 C-564.6224115 370.63159637 -565.55341675 371.0249115 -566.51263428 371.43014526 C-573.11429994 374.21939147 -579.71541637 377.0099362 -586.31640625 379.80078125 C-593.85769461 382.98917689 -601.39922798 386.17699118 -608.94140625 389.36328125 C-609.87257263 389.75667694 -610.80373901 390.15007263 -611.76312256 390.5553894 C-626.32483412 396.70604673 -640.90173434 402.81976301 -655.48596191 408.91680908 C-669.23228396 414.66428308 -682.96650705 420.43983716 -696.69140625 426.23828125 C-697.6224115 426.63159637 -698.55341675 427.0249115 -699.51263428 427.43014526 C-706.11429994 430.21939147 -712.71541637 433.0099362 -719.31640625 435.80078125 C-726.85769462 438.98917689 -734.39924631 442.17694779 -741.94140625 445.36328125 C-743.33217377 445.95088226 -743.33217377 445.95088226 -744.7510376 446.550354 C-760.45463299 453.18378403 -776.17607523 459.77396281 -791.90649414 466.34350586 C-800.37382222 469.88163254 -808.8332117 473.43670013 -817.2734375 477.0390625 C-818.05433746 477.37204849 -818.83523743 477.70503448 -819.63980103 478.04811096 C-823.29423697 479.60697239 -826.94690008 481.16976964 -830.59667969 482.73950195 C-831.86909082 483.2834824 -833.14154878 483.82735334 -834.4140625 484.37109375 C-835.51242432 484.84305176 -836.61078613 485.31500977 -837.74243164 485.80126953 C-840.31640625 486.80078125 -840.31640625 486.80078125 -842.31640625 486.80078125 C-844.47945286 435.488509 -822.75303323 383.27068626 -788.31640625 345.80078125 C-764.01512643 319.75250808 -736.08245451 302.69412432 -703.50390625 288.92578125 C-701.99515795 288.28381528 -700.4865356 287.64155326 -698.97802734 286.99902344 C-685.3399334 281.19946353 -671.66552164 275.48543507 -657.99047852 269.77368164 C-644.9621178 264.33180252 -631.94716527 258.85895273 -618.94140625 253.36328125 C-618.01130737 252.97032867 -617.0812085 252.5773761 -616.1229248 252.17251587 C-609.52034523 249.38289959 -602.9183042 246.59201023 -596.31640625 243.80078125 C-588.77511789 240.61238561 -581.23358452 237.42457132 -573.69140625 234.23828125 C-572.76023987 233.84488556 -571.82907349 233.45148987 -570.86968994 233.0461731 C-556.30797838 226.89551577 -541.73107816 220.78179949 -527.14685059 214.68475342 C-513.40052854 208.93727942 -499.66630545 203.16172534 -485.94140625 197.36328125 C-485.010401 196.96996613 -484.07939575 196.576651 -483.12017822 196.17141724 C-476.51851256 193.38217103 -469.91739613 190.5916263 -463.31640625 187.80078125 C-455.77511789 184.61238561 -448.23358452 181.42457132 -440.69140625 178.23828125 C-439.76023987 177.84488556 -438.82907349 177.45148987 -437.86968994 177.0461731 C-423.30797838 170.89551577 -408.73107816 164.78179949 -394.14685059 158.68475342 C-380.40052854 152.93727942 -366.66630545 147.16172534 -352.94140625 141.36328125 C-352.010401 140.96996613 -351.07939575 140.576651 -350.12017822 140.17141724 C-343.51851256 137.38217103 -336.91739613 134.5916263 -330.31640625 131.80078125 C-322.77511789 128.61238561 -315.23358452 125.42457132 -307.69140625 122.23828125 C-306.29465668 121.64818771 -306.29465668 121.64818771 -304.86968994 121.0461731 C-290.30797838 114.89551577 -275.73107816 108.78179949 -261.14685059 102.68475342 C-247.40052854 96.93727942 -233.66630545 91.16172534 -219.94140625 85.36328125 C-219.010401 84.96996613 -218.07939575 84.576651 -217.12017822 84.17141724 C-210.51851256 81.38217103 -203.91739613 78.5916263 -197.31640625 75.80078125 C-189.77511789 72.61238561 -182.23358452 69.42457132 -174.69140625 66.23828125 C-173.29465668 65.64818771 -173.29465668 65.64818771 -171.86968994 65.0461731 C-157.30797838 58.89551577 -142.73107816 52.78179949 -128.14685059 46.68475342 C-114.40052823 40.93727929 -100.66633366 35.16165914 -86.94140625 29.36328125 C-86.0213681 28.97461884 -85.10132996 28.58595642 -84.15341187 28.18551636 C-75.47436786 24.51877703 -66.79634191 20.84963092 -58.11865234 17.1796875 C-52.94788229 14.99290482 -47.77674199 12.80699954 -42.60540771 10.62155151 C-39.70553107 9.39567321 -36.80612542 8.16868589 -33.90673828 6.94165039 C-32.12274543 6.18760579 -30.3387297 5.43361533 -28.5546875 4.6796875 C-27.37008186 4.17779907 -27.37008186 4.17779907 -26.1615448 3.66577148 C-24.64887846 3.02705815 -23.13229077 2.39754297 -21.61170959 1.77790833 C-19.99965076 1.09164333 -18.41226533 0.34586972 -16.84715271 -0.44160461 C-10.12434893 -3.63549991 -6.60166526 -3.18741881 0 0 Z " fill="#03766F" transform="translate(854.31640625,24.19921875)"/>
<path d="M0 0 C22.96694928 9.18677971 22.96694928 9.18677971 30.21484375 12.26953125 C31.06359573 12.62853012 31.91234772 12.98752899 32.78681946 13.35740662 C35.50446529 14.50733705 38.22097588 15.65992259 40.9375 16.8125 C42.87653678 17.63335259 44.8156665 18.45398568 46.75488281 19.27441406 C50.78667224 20.98039455 54.81806453 22.68730808 58.84912109 24.39501953 C68.01364019 28.27700536 77.18124433 32.15168548 86.34963989 36.02450562 C89.1630217 37.2132489 91.97594631 38.40306866 94.78881836 39.59301758 C96.55185175 40.33821622 98.3149523 41.08325602 100.078125 41.828125 C100.91614151 42.18226974 101.75415802 42.53641449 102.61756897 42.90129089 C106.74789153 44.64289864 110.88416389 46.3678726 115.03320312 48.06445312 C115.82652039 48.3888739 116.61983765 48.71329468 117.43719482 49.04754639 C118.93199913 49.65715266 120.42776194 50.2644156 121.92462158 50.86895752 C126.89166386 52.89166386 126.89166386 52.89166386 128 54 C128.09797032 55.8303405 128.12447195 57.66451845 128.1241985 59.49747902 C128.12644579 60.70092993 128.12869308 61.90438084 128.13100848 63.14429995 C128.12844217 64.49966827 128.12578523 65.85503642 128.12304783 67.2104044 C128.12378657 68.64071881 128.1249642 70.07103306 128.12654433 71.5013468 C128.12963391 75.46801419 128.12642131 79.43465625 128.12226619 83.40132177 C128.1188494 87.70298609 128.12119945 92.00464768 128.12284368 96.3063125 C128.12492354 103.85747816 128.12326326 111.40863597 128.11920547 118.95980072 C128.11318832 130.18823431 128.112868 141.4166629 128.11374746 152.64509781 C128.11506365 171.53003784 128.11171131 190.41497439 128.10573006 209.29991341 C128.09982004 228.0077421 128.09596553 246.71556935 128.09487724 265.42339897 C128.0948085 266.58508883 128.09473976 267.7467787 128.09466894 268.94367128 C128.09433062 274.84291996 128.09402923 280.74216864 128.09374207 286.64141732 C128.09163972 328.46350121 128.08489696 370.2855832 128.07543945 412.10766602 C128.06626022 452.74601227 128.05917406 493.384358 128.05493164 534.02270508 C128.05473435 535.90053607 128.05473435 535.90053607 128.05453308 537.81630304 C128.0532146 550.38787255 128.05193878 562.95944207 128.05069422 575.53101159 C128.04815777 601.14245482 128.04533651 626.75389801 128.04234314 652.36534119 C128.04220585 653.54300361 128.04206856 654.72066604 128.04192711 655.93401521 C128.03272106 734.6226776 128.01687523 813.31133893 128 892 C127.48911976 892.21377777 126.97823953 892.42755553 126.45187807 892.64781141 C121.0734325 894.89845813 115.69508064 897.1493287 110.31678009 899.40032196 C108.31685437 900.23732249 106.31690576 901.07426834 104.31693268 901.9111557 C91.19739364 907.40107067 78.08280242 912.90193176 64.98657227 918.44726562 C49.50618003 925.00116365 34.01013399 931.51683142 18.5 938 C3.86346957 944.11866483 -10.76163673 950.26370093 -25.375 956.4375 C-26.30600525 956.83081512 -27.2370105 957.22413025 -28.19622803 957.62936401 C-34.79789369 960.41861022 -41.39901012 963.20915495 -48 966 C-55.54128836 969.18839564 -63.08282173 972.37620993 -70.625 975.5625 C-71.55616638 975.95589569 -72.48733276 976.34929138 -73.44671631 976.75460815 C-88.00842787 982.90526548 -102.58532809 989.01898176 -117.16955566 995.11602783 C-130.91587771 1000.86350183 -144.6501008 1006.63905591 -158.375 1012.4375 C-159.30600525 1012.83081512 -160.2370105 1013.22413025 -161.19622803 1013.62936401 C-167.79789369 1016.41861022 -174.39901012 1019.20915495 -181 1022 C-188.54128836 1025.18839564 -196.08282173 1028.37620993 -203.625 1031.5625 C-205.02174957 1032.15259354 -205.02174957 1032.15259354 -206.44671631 1032.75460815 C-221.00842787 1038.90526548 -235.58532809 1045.01898176 -250.16955566 1051.11602783 C-263.91587771 1056.86350183 -277.6501008 1062.63905591 -291.375 1068.4375 C-292.77150787 1069.02747269 -292.77150787 1069.02747269 -294.19622803 1069.62936401 C-300.79789369 1072.41861022 -307.39901012 1075.20915495 -314 1078 C-340.72016871 1089.2970709 -367.45063137 1100.56827625 -394.22019958 1111.74787903 C-399.48203189 1113.94584862 -404.74136668 1116.14967073 -409.99879456 1118.3581543 C-413.38480792 1119.77999228 -416.77198377 1121.19904572 -420.15939331 1122.61755371 C-421.74920526 1123.2840452 -423.33850872 1123.95175105 -424.92727661 1124.62072754 C-427.09731057 1125.53424917 -429.26911278 1126.44342978 -431.44140625 1127.3515625 C-432.0818689 1127.62245697 -432.72233154 1127.89335144 -433.38220215 1128.17245483 C-437.7719467 1130 -437.7719467 1130 -440 1130 C-440 1084.13 -440 1038.26 -440 991 C-417.144386 981.20473686 -394.31998662 971.42810728 -371.359375 961.8984375 C-360.8660884 957.54060992 -350.40216254 953.11351493 -339.9375 948.6875 C-324.26197262 942.05852739 -308.57394261 935.46058183 -292.86917114 928.90118408 C-282.44048584 924.54529474 -272.02134922 920.16809011 -261.6171875 915.75390625 C-260.58994568 915.31847504 -259.56270386 914.88304382 -258.5043335 914.43441772 C-253.53563611 912.32821507 -248.56832226 910.21887347 -243.60351562 908.10351562 C-241.80605515 907.34099126 -240.00853231 906.57861388 -238.2109375 905.81640625 C-237.40969452 905.47348038 -236.60845154 905.1305545 -235.78292847 904.77723694 C-234.63813522 904.29304543 -234.63813522 904.29304543 -233.47021484 903.79907227 C-232.82047699 903.52249283 -232.17073914 903.24591339 -231.50131226 902.96095276 C-227.71627208 901.50681812 -223.84667818 900.28222606 -220 899 C-220 819.8 -220 740.6 -220 659 C-205.08604426 652.11663581 -205.08604426 652.11663581 -197.90625 649.14453125 C-196.68546501 648.63535408 -196.68546501 648.63535408 -195.4400177 648.1158905 C-193.69820592 647.38961939 -191.95595353 646.66440417 -190.21328735 645.94018555 C-185.47726844 643.97182047 -180.74468222 641.99522921 -176.01171875 640.01953125 C-175.0297905 639.60986115 -174.04786224 639.20019104 -173.03617859 638.77810669 C-163.07988304 634.62164364 -153.14082287 630.42469003 -143.20379639 626.22241211 C-137.61254272 623.85848421 -132.0196294 621.49848491 -126.42706299 619.13766479 C-121.88166274 617.21843248 -117.33773283 615.29581348 -112.79588318 613.36819458 C-109.99060947 612.17896257 -107.18263538 610.99614332 -104.375 609.8125 C-103.42794189 609.40837891 -102.48088379 609.00425781 -101.50512695 608.58789062 C-100.66554443 608.23533203 -99.82596191 607.88277344 -98.9609375 607.51953125 C-97.90592041 607.07250854 -97.90592041 607.07250854 -96.82958984 606.61645508 C-95 606 -95 606 -92 606 C-91.505 723.81 -91.505 723.81 -91 844 C-77.8 838.39 -64.6 832.78 -51 827 C-43.14913441 823.7000547 -35.29732918 820.40336724 -27.4375 817.125 C-24.71096538 815.98648987 -21.98458027 814.84762301 -19.25831604 813.70846558 C-17.61343093 813.02127468 -15.96837726 812.334487 -14.32310486 811.64822388 C-13.22622093 811.1903096 -13.22622093 811.1903096 -12.10717773 810.72314453 C-11.47947983 810.46131378 -10.85178192 810.19948303 -10.20506287 809.92971802 C-7.13087858 808.63355338 -4.06650969 807.31421844 -1 806 C-0.67 540.02 -0.34 274.04 0 0 Z " fill="#02766F" transform="translate(1331,705)"/>
<path d="M0 0 C3.38162232 0.67632446 5.75969416 1.18180012 8.80078125 2.46435547 C9.51781219 2.76407257 10.23484314 3.06378967 10.97360229 3.37258911 C11.74543854 3.70080658 12.51727478 4.02902405 13.3125 4.3671875 C14.13726837 4.71353241 14.96203674 5.05987732 15.8117981 5.41671753 C18.54310361 6.56501119 21.27154002 7.71996317 24 8.875 C25.92415106 9.68561396 27.84847043 10.49582848 29.77294922 11.30566406 C34.83427547 13.43688053 39.8931729 15.57380291 44.95153809 17.71203613 C49.86475356 19.78785147 54.78015931 21.85846565 59.6953125 23.9296875 C70.80059766 28.61099685 81.90125281 33.30321375 93 38 C93.85636047 38.36234741 94.71272095 38.72469482 95.59503174 39.09802246 C100.40101944 41.13169161 105.20657471 43.16637674 110.01141357 45.20275879 C111.44871855 45.81189906 112.88609512 46.42087042 114.32354736 47.02966309 C116.27197565 47.85503615 118.22003568 48.68127151 120.16796875 49.5078125 C121.25360107 49.96816895 122.3392334 50.42852539 123.45776367 50.90283203 C124.9889211 51.5636427 126.50839313 52.25419657 128 53 C128.06853583 103.65237725 128.13221009 154.30475773 128.16937256 204.95716858 C128.16992479 205.70792674 128.17047702 206.4586849 128.17104598 207.2321933 C128.18302014 223.55175542 128.19410051 239.87131803 128.20426132 256.19088137 C128.20925027 264.19504407 128.21443654 272.19920663 128.21972656 280.20336914 C128.2202496 280.99984101 128.22077263 281.79631287 128.22131152 282.61692024 C128.23832927 308.39066267 128.26835376 334.1643698 128.30518888 359.93809088 C128.3430013 386.4440379 128.36756075 412.94996542 128.37565996 439.45593896 C128.37681243 443.20752444 128.37811497 446.95910986 128.37950897 450.71069527 C128.37991351 451.81814516 128.37991351 451.81814516 128.38032622 452.94796779 C128.3850364 464.78913296 128.40354326 476.6302375 128.42732814 488.47137803 C128.45099407 500.40203229 128.45984287 512.332627 128.45400551 524.26330387 C128.45145468 530.7169446 128.45524305 537.17040874 128.4768219 543.62401772 C128.49648977 549.54985622 128.49714062 555.47540174 128.48359558 561.4012546 C128.48192504 563.52820541 128.4868262 565.65517559 128.49953273 567.78208911 C128.60962295 587.37287604 126.36939412 606.90575991 120.8125 625.75 C120.37139893 627.27947266 120.37139893 627.27947266 119.92138672 628.83984375 C116.80002085 639.2713934 112.70702372 649.1916993 108 659 C107.63648438 659.75748535 107.27296875 660.5149707 106.8984375 661.29541016 C92.75053952 690.27188286 70.86789263 715.86007944 45 735 C44.46117187 735.39960937 43.92234375 735.79921875 43.3671875 736.2109375 C34.67121821 742.59369329 25.49775338 747.91997559 16 753 C15.4013916 753.32194336 14.8027832 753.64388672 14.18603516 753.97558594 C4.77256944 759 4.77256944 759 0 759 C-0.04667213 741.04158635 -0.08196531 723.08318839 -0.10362434 705.12472725 C-0.11394725 696.78674419 -0.1280269 688.44879876 -0.15087891 680.11083984 C-0.1707818 672.84546792 -0.18370905 665.58012323 -0.18817699 658.3147248 C-0.19078965 654.46594806 -0.19695144 650.61724928 -0.21146011 646.76849747 C-0.22499513 643.14884068 -0.22923097 639.52929426 -0.22621536 635.90961456 C-0.22703134 633.94189551 -0.23781427 631.97418858 -0.24884033 630.00650024 C-0.246091 628.84259766 -0.24334167 627.67869507 -0.24050903 626.47952271 C-0.24235262 625.46370684 -0.24419621 624.44789097 -0.24609566 623.4012928 C0 621 0 621 2 619 C1.34 618.67 0.68 618.34 0 618 C0 539.79 0 461.58 0 381 C0.66 380.67 1.32 380.34 2 380 C1.34 379.34 0.68 378.68 0 378 C-0.19381234 374.89122003 -0.26027946 371.87176964 -0.24050903 368.76205444 C-0.24221788 367.79254368 -0.24392673 366.82303293 -0.24568737 365.82414305 C-0.2489981 362.5550516 -0.23795257 359.28616258 -0.22705078 356.01708984 C-0.22648701 353.68184921 -0.22680256 351.34660822 -0.22793579 349.0113678 C-0.22851163 342.65422016 -0.21671997 336.2971474 -0.20278788 329.94001722 C-0.19158114 323.9747666 -0.18954372 318.00951899 -0.18748413 312.04425927 C-0.18310392 300.22675762 -0.169786 288.40928354 -0.15087891 276.59179688 C-0.13252853 265.11035297 -0.11836791 253.62891654 -0.10986328 242.14746094 C-0.10933783 241.44006843 -0.10881239 240.73267593 -0.10827102 240.00384729 C-0.10566099 236.45516371 -0.10313357 232.90648009 -0.10064721 229.35779643 C-0.07990457 199.90517984 -0.0445218 170.45259021 0 141 C0.66 141 1.32 141 2 141 C2 140.34 2 139.68 2 139 C1.34 139 0.68 139 0 139 C0 93.13 0 47.26 0 0 Z " fill="#017670" transform="translate(1550,798)"/>
<path d="M0 0 C6.18833721 1.96579612 12.17174708 4.23004642 18.140625 6.78125 C19.00376312 7.1468251 19.86690125 7.51240021 20.75619507 7.88905334 C23.58879968 9.08957923 26.41936684 10.29483407 29.25 11.5 C31.25814353 12.35185193 33.26644728 13.20332621 35.27490234 14.05444336 C39.44595355 15.82238692 43.61631292 17.59194727 47.78613281 19.36279297 C57.39379318 23.44189048 67.00928755 27.50242957 76.625 31.5625 C78.01712708 32.1505542 78.01712708 32.1505542 79.43737793 32.75048828 C93.11370113 38.52726488 106.80249185 44.27365365 120.5 50 C135.13644309 56.11887517 149.76163576 62.26370052 164.375 68.4375 C165.30600525 68.83081512 166.2370105 69.22413025 167.19622803 69.62936401 C174.7424077 72.81767347 182.28784476 76.00773893 189.83325195 79.19787598 C196.43015446 81.98690513 203.02735054 84.77523825 209.625 87.5625 C211.02174957 88.15259354 211.02174957 88.15259354 212.44671631 88.75460815 C226.11993931 94.5299807 239.8056849 100.27483754 253.5 106 C268.48956409 112.26710889 283.46889082 118.55799578 298.4375 124.875 C299.32211914 125.24802246 300.20673828 125.62104492 301.11816406 126.00537109 C316.77270947 132.60770932 332.38340139 139.30717202 348 146 C348 191.87 348 237.74 348 285 C341.95839067 282.98613022 336.13854455 280.90963227 330.296875 278.4375 C329.4782196 278.09416626 328.65956421 277.75083252 327.81610107 277.39709473 C325.12604715 276.26792074 322.43802055 275.13400497 319.75 274 C317.83669695 273.19570561 315.92328326 272.39167436 314.00976562 271.58789062 C308.00434086 269.06373086 302.00180425 266.53275453 296 264 C295.04762451 263.59813477 294.09524902 263.19626953 293.11401367 262.78222656 C284.68985789 259.22711819 276.26668808 255.66967838 267.84472656 252.109375 C255.07454969 246.71216817 242.29133783 241.34684217 229.5 236 C210.08839736 227.88449889 190.69759357 219.72050553 171.32225037 211.51881409 C165.75164944 209.16141217 160.17793599 206.81156881 154.60157776 204.46781921 C150.98633511 202.9473744 147.37292567 201.4226062 143.75985718 199.89700317 C142.08243629 199.18980423 140.4042675 198.48437584 138.72525024 197.78097534 C111.71826017 186.46304003 86.73204959 173.00813024 65.52587891 152.47460938 C64.46942478 151.45365211 63.40610583 150.43976855 62.33740234 149.43164062 C24.85240107 114.04968848 2.03888561 62.44788017 0 11 C-0.06196401 7.33084512 -0.05412069 3.6689668 0 0 Z " fill="#089F83" transform="translate(12,1365)"/>
<path d="M0 0 C2.50684149 0.93067019 5.01279426 1.8636256 7.51831055 2.79785156 C8.21685905 3.05692291 8.91540756 3.31599426 9.63512421 3.58291626 C15.72457923 5.8567703 21.70646513 8.34625106 27.66455078 10.94555664 C32.11962106 12.88412866 36.58027581 14.80951275 41.04296875 16.73046875 C41.84255005 17.07480453 42.64213135 17.41914032 43.46594238 17.77391052 C53.15665202 21.9391282 62.89115509 25.99939041 72.625 30.0625 C76.23976048 31.57249291 79.85431195 33.08298547 83.46875 34.59375 C84.79015739 35.14607048 84.79015739 35.14607048 86.13825989 35.70954895 C94.41228033 39.16951061 102.68008746 42.6440247 110.93963623 46.13839722 C112.38689485 46.7503849 113.83452222 47.36150132 115.28253174 47.97171021 C117.25448321 48.80296191 119.22509089 49.63731438 121.1953125 50.47265625 C122.29891113 50.93937744 123.40250977 51.40609863 124.53955078 51.88696289 C127 53 127 53 128 54 C128.09636838 55.78427187 128.12187453 57.57239653 128.12025452 59.35926819 C128.12231651 61.10306007 128.12231651 61.10306007 128.12442017 62.88208008 C128.12082489 64.16888672 128.11722961 65.45569336 128.11352539 66.78149414 C128.11324352 68.14123024 128.11340125 69.5009665 128.1139679 70.86070251 C128.11425587 74.56301778 128.10835912 78.26530092 128.10139394 81.96760869 C128.09516043 85.83268781 128.0945566 89.69776758 128.09336853 93.56285095 C128.09025521 100.88684682 128.0820418 108.21082784 128.07201904 115.53481716 C128.06085794 123.87083448 128.05534746 132.20685249 128.05032361 140.54287541 C128.03985919 157.69525888 128.02225973 174.84762787 128 192 C124.41838288 191.43146761 121.20869971 190.85720231 117.87036133 189.42797852 C116.72531883 188.94359818 116.72531883 188.94359818 115.55714417 188.44943237 C114.7403569 188.09615875 113.92356964 187.74288513 113.08203125 187.37890625 C112.20872665 187.00758575 111.33542206 186.63626526 110.43565369 186.25369263 C107.55874423 185.02912555 104.68571439 183.79570872 101.8125 182.5625 C98.76251329 181.26211639 95.71153474 179.96407788 92.66055298 178.66603088 C90.56433708 177.77393201 88.46845451 176.8810495 86.37289429 175.9874115 C76.74466585 171.88280928 67.09188259 167.83829264 57.43264771 163.80731201 C43.96748377 158.18657684 30.50908727 152.549491 17.07043457 146.8656311 C15.61888388 146.25198068 14.16698502 145.63915312 12.71472168 145.02719116 C10.74368076 144.19631707 8.77398902 143.36233044 6.8046875 142.52734375 C5.70108887 142.06062256 4.59749023 141.59390137 3.46044922 141.11303711 C1 140 1 140 0 139 C-0.09639184 137.20305962 -0.12187425 135.40229107 -0.12025452 133.60276794 C-0.12162918 132.43182587 -0.12300385 131.26088379 -0.12442017 130.05445862 C-0.12082489 128.75830124 -0.11722961 127.46214386 -0.11352539 126.12670898 C-0.11324352 124.75712079 -0.11340125 123.38753244 -0.1139679 122.01794434 C-0.11425588 118.28877052 -0.10835909 114.55962859 -0.10139394 110.83046222 C-0.09516047 106.93735587 -0.09455661 103.04424887 -0.09336853 99.15113831 C-0.09025519 91.77401854 -0.08204178 84.39691351 -0.07201904 77.01980025 C-0.06085797 68.62332457 -0.05534747 60.22684821 -0.05032361 51.83036697 C-0.03985916 34.55356944 -0.02225968 17.27678628 0 0 Z " fill="#028275" transform="translate(452,1550)"/>
<path d="M0 0 C4.36466151 0.8729323 7.71211722 2.00157269 11.78125 3.7109375 C12.44996628 3.99042236 13.11868256 4.26990723 13.80766296 4.55786133 C16.04034922 5.49242906 18.27014382 6.43370187 20.5 7.375 C22.0979096 8.04545072 23.69597666 8.71552626 25.29418945 9.38525391 C39.82405498 15.48039691 54.33244007 21.62708816 68.84277344 27.76855469 C78.52804648 31.86491712 88.22377305 35.93406591 97.94140625 39.953125 C98.90012131 40.34968292 99.85883636 40.74624084 100.84660339 41.15481567 C105.43654546 43.05210658 110.02816294 44.94523332 114.62182617 46.83349609 C116.25310096 47.50616426 117.8843677 48.17885192 119.515625 48.8515625 C120.26433365 49.15789612 121.0130423 49.46422974 121.78443909 49.77984619 C126.88702137 51.88702137 126.88702137 51.88702137 128 53 C128.09639184 54.79694038 128.12187425 56.59770893 128.12025452 58.39723206 C128.12231651 60.15364517 128.12231651 60.15364517 128.12442017 61.94554138 C128.12082489 63.24169876 128.11722961 64.53785614 128.11352539 65.87329102 C128.11324352 67.24287921 128.11340125 68.61246756 128.1139679 69.98205566 C128.11425588 73.71122948 128.10835909 77.44037141 128.10139394 81.16953778 C128.09516047 85.06264413 128.09455661 88.95575113 128.09336853 92.84886169 C128.09025519 100.22598146 128.08204178 107.60308649 128.07201904 114.98019975 C128.06085797 123.37667543 128.05534747 131.77315179 128.05032361 140.16963303 C128.03985916 157.44643056 128.02225968 174.72321372 128 192 C118.48679788 188.88496789 118.48679788 188.88496789 114.56152344 187.21679688 C113.80478333 186.89722519 113.04804321 186.5776535 112.26837158 186.24839783 C111.07591827 185.73872215 111.07591827 185.73872215 109.859375 185.21875 C108.56371613 184.66997948 108.56371613 184.66997948 107.24188232 184.11012268 C104.40992235 182.90986269 101.57999538 181.70488388 98.75 180.5 C96.75211158 179.65253975 94.75406183 178.80545977 92.75585938 177.95874023 C88.59504849 176.19522308 84.43493881 174.43006756 80.27539062 172.66357422 C71.28733616 168.8473558 62.29354701 165.04472903 53.29846191 161.24511719 C50.62133912 160.11377736 47.94489564 158.98084412 45.26855469 157.84765625 C30.21156261 151.48274546 15.10651301 145.2509709 0 139 C0 93.13 0 47.26 0 0 Z " fill="#02706D" transform="translate(671,1643)"/>
<path d="M0 0 C0 45.87 0 91.74 0 139 C-13.48889755 145.74444877 -13.48889755 145.74444877 -19.46484375 148.19921875 C-20.12401794 148.47176483 -20.78319214 148.74431091 -21.46234131 149.02511597 C-22.87950997 149.61066121 -24.29746561 150.19430495 -25.71615601 150.77615356 C-29.66374932 152.39572491 -33.60479041 154.03113971 -37.546875 155.6640625 C-38.3846196 156.01064407 -39.2223642 156.35722565 -40.085495 156.71430969 C-50.30720077 160.94709582 -60.49704389 165.2551626 -70.6875 169.5625 C-72.59471303 170.36787058 -74.50193954 171.17320926 -76.40917969 171.97851562 C-85.32127949 175.74321692 -94.2281201 179.51977652 -103.125 183.3203125 C-104.6800749 183.98368828 -106.23516873 184.64701973 -107.7902832 185.31030273 C-110.65517215 186.53229384 -113.51798267 187.75898548 -116.37963867 188.98852539 C-117.64234237 189.5276775 -118.9051146 190.06666915 -120.16796875 190.60546875 C-121.25360107 191.07106201 -122.3392334 191.53665527 -123.45776367 192.01635742 C-126 193 -126 193 -128 193 C-128 147.13 -128 101.26 -128 54 C-111.14138817 46.13264781 -111.14138817 46.13264781 -105.2421875 43.703125 C-104.58716751 43.43194855 -103.93214752 43.16077209 -103.25727844 42.88137817 C-101.85775525 42.30223199 -100.45764731 41.72449699 -99.05697632 41.14813232 C-95.15329749 39.54132289 -91.25464607 37.92238283 -87.35546875 36.3046875 C-86.52741226 35.96140411 -85.69935577 35.61812073 -84.84620667 35.26443481 C-74.60687173 31.01487733 -64.3980199 26.69320938 -54.1875 22.375 C-50.39463184 20.77189737 -46.60161288 19.16915166 -42.80859375 17.56640625 C-41.89265442 17.17934006 -40.97671509 16.79227386 -40.03302002 16.39347839 C-31.9521961 12.97894089 -23.87031971 9.56693513 -15.78311157 6.1675415 C-14.4377653 5.60174526 -13.09268843 5.03530799 -11.74789429 4.46820068 C-9.93159765 3.7023753 -8.11426908 2.93899863 -6.296875 2.17578125 C-5.28979492 1.75208252 -4.28271484 1.32838379 -3.24511719 0.8918457 C-1 0 -1 0 0 0 Z " fill="#048C7A" transform="translate(799,520)"/>
<path d="M0 0 C0 45.87 0 91.74 0 139 C-13.48889755 145.74444877 -13.48889755 145.74444877 -19.46484375 148.19921875 C-20.12401794 148.47176483 -20.78319214 148.74431091 -21.46234131 149.02511597 C-22.87950997 149.61066121 -24.29746561 150.19430495 -25.71615601 150.77615356 C-29.66374932 152.39572491 -33.60479041 154.03113971 -37.546875 155.6640625 C-38.3846196 156.01064407 -39.2223642 156.35722565 -40.085495 156.71430969 C-50.30720077 160.94709582 -60.49704389 165.2551626 -70.6875 169.5625 C-72.59471303 170.36787058 -74.50193954 171.17320926 -76.40917969 171.97851562 C-85.32127949 175.74321692 -94.2281201 179.51977652 -103.125 183.3203125 C-104.6800749 183.98368828 -106.23516873 184.64701973 -107.7902832 185.31030273 C-110.65517215 186.53229384 -113.51798267 187.75898548 -116.37963867 188.98852539 C-117.64234237 189.5276775 -118.9051146 190.06666915 -120.16796875 190.60546875 C-121.25360107 191.07106201 -122.3392334 191.53665527 -123.45776367 192.01635742 C-126 193 -126 193 -128 193 C-128 147.13 -128 101.26 -128 54 C-111.14138817 46.13264781 -111.14138817 46.13264781 -105.2421875 43.703125 C-104.58716751 43.43194855 -103.93214752 43.16077209 -103.25727844 42.88137817 C-101.85775525 42.30223199 -100.45764731 41.72449699 -99.05697632 41.14813232 C-95.15329749 39.54132289 -91.25464607 37.92238283 -87.35546875 36.3046875 C-86.52741226 35.96140411 -85.69935577 35.61812073 -84.84620667 35.26443481 C-74.60687173 31.01487733 -64.3980199 26.69320938 -54.1875 22.375 C-50.39463184 20.77189737 -46.60161288 19.16915166 -42.80859375 17.56640625 C-41.89265442 17.17934006 -40.97671509 16.79227386 -40.03302002 16.39347839 C-31.9521961 12.97894089 -23.87031971 9.56693513 -15.78311157 6.1675415 C-14.4377653 5.60174526 -13.09268843 5.03530799 -11.74789429 4.46820068 C-9.93159765 3.7023753 -8.11426908 2.93899863 -6.296875 2.17578125 C-5.28979492 1.75208252 -4.28271484 1.32838379 -3.24511719 0.8918457 C-1 0 -1 0 0 0 Z " fill="#048D7A" transform="translate(1019,1163)"/>
<path d="M0 0 C0 45.87 0 91.74 0 139 C-45.86158676 158.65496575 -45.86158676 158.65496575 -68.4921875 168.03515625 C-75.70093962 171.02624962 -82.88789189 174.06736648 -90.0703125 177.12109375 C-91.61168129 177.77557747 -91.61168129 177.77557747 -93.18418884 178.44328308 C-99.32039956 181.0486397 -99.32039956 181.0486397 -105.45254517 183.6635437 C-108.27783136 184.87095278 -111.10547776 186.07267486 -113.93359375 187.2734375 C-115.19981064 187.81761574 -115.19981064 187.81761574 -116.49160767 188.37278748 C-117.27740204 188.70529007 -118.06319641 189.03779266 -118.87280273 189.38037109 C-119.55253647 189.67044037 -120.2322702 189.96050964 -120.93260193 190.2593689 C-123 191 -123 191 -128 192 C-128 146.13 -128 100.26 -128 53 C-105.19629717 43.2269845 -82.42547834 33.46933696 -59.515625 23.96484375 C-46.12565432 18.40561777 -32.78131379 12.73717487 -19.43237305 7.08032227 C-17.57861382 6.29573439 -15.72485409 5.51114774 -13.87109375 4.7265625 C-13.01662659 4.36377701 -12.16215942 4.00099152 -11.28179932 3.62721252 C-10.49585388 3.29470993 -9.70990845 2.96220734 -8.90014648 2.61962891 C-8.21597153 2.32955963 -7.53179657 2.03949036 -6.82688904 1.7406311 C-4.51190654 0.80212416 -2.52002873 0 0 0 Z " fill="#038A79" transform="translate(1239,1071)"/>
<path d="M0 0 C0 45.87 0 91.74 0 139 C-34.17145343 153.80762982 -34.17145343 153.80762982 -48.07385254 159.58981323 C-52.55769987 161.45493053 -57.03845735 163.32745018 -61.51953125 165.19921875 C-62.90831985 165.77909294 -62.90831985 165.77909294 -64.32516479 166.37068176 C-75.47896329 171.03070391 -86.61483565 175.73316557 -97.75 180.4375 C-98.72292999 180.84840881 -99.69585999 181.25931763 -100.69827271 181.68267822 C-103.46044022 182.84933461 -106.22245566 184.01634995 -108.984375 185.18359375 C-109.79601608 185.52654984 -110.60765717 185.86950592 -111.44389343 186.22285461 C-112.58879997 186.70700081 -112.58879997 186.70700081 -113.75683594 187.20092773 C-114.83475403 187.65482376 -114.83475403 187.65482376 -115.93444824 188.1178894 C-117.29779785 188.70011889 -118.65586117 189.29490626 -120.00793457 189.90286255 C-122.86758306 191.18211751 -124.82602498 192 -128 192 C-128 146.13 -128 100.26 -128 53 C-113.15 46.73 -98.3 40.46 -83 34 C-73.93311539 30.16689123 -73.93311539 30.16689123 -64.86645508 26.33325195 C-55.91390555 22.54853885 -46.95781385 18.77223449 -38 15 C-37.10196655 14.62176086 -36.20393311 14.24352173 -35.27868652 13.8538208 C-30.08987589 11.66911372 -24.8992418 9.48883762 -19.70584106 7.31506348 C-18.12287626 6.65196421 -16.5404087 5.98767654 -14.95846558 5.32214355 C-12.80314998 4.41576921 -10.64601166 3.51388863 -8.48828125 2.61328125 C-7.27696533 2.10579346 -6.06564941 1.59830566 -4.81762695 1.07543945 C-2 0 -2 0 0 0 Z " fill="#038476" transform="translate(140,798)"/>
<path d="M0 0 C0 45.87 0 91.74 0 139 C-5.80743707 141.90371854 -11.31790757 144.65202754 -17.26953125 147.1015625 C-17.93139938 147.37547821 -18.59326752 147.64939392 -19.27519226 147.93161011 C-20.70431253 148.52275339 -22.13408421 149.11232393 -23.56445312 149.70043945 C-27.54241318 151.33646625 -31.51505551 152.9853291 -35.48828125 154.6328125 C-36.33282867 154.98269226 -37.1773761 155.33257202 -38.04751587 155.6930542 C-47.26416753 159.51564254 -56.45365926 163.40205856 -65.64254761 167.290802 C-80.20242169 173.4521542 -94.76824007 179.59903358 -109.3581543 185.68896484 C-110.94385699 186.35095566 -112.5293093 187.01354659 -114.11450195 187.67675781 C-116.27869861 188.58191579 -118.44385916 189.48472221 -120.609375 190.38671875 C-121.82592773 190.89420654 -123.04248047 191.40169434 -124.29589844 191.92456055 C-127 193 -127 193 -128 193 C-128 147.13 -128 101.26 -128 54 C-121.74696542 50.87348271 -115.63511033 47.89558483 -109.19921875 45.2421875 C-108.38134384 44.90141174 -107.56346893 44.56063599 -106.72080994 44.20953369 C-104.96150039 43.47688938 -103.20153849 42.7458099 -101.440979 42.01617432 C-96.65694454 40.03344002 -91.87769971 38.03920687 -87.09765625 36.046875 C-86.10542053 35.63370026 -85.11318481 35.22052551 -84.09088135 34.79483032 C-74.2076963 30.67681995 -64.34585273 26.5088537 -54.48587036 22.33566284 C-40.59023775 16.45531038 -26.68833229 10.59102084 -12.75 4.8125 C-11.54811035 4.31314941 -10.3462207 3.81379883 -9.10791016 3.29931641 C-8.03589355 2.8563623 -6.96387695 2.4134082 -5.859375 1.95703125 C-4.93608398 1.57522705 -4.01279297 1.19342285 -3.06152344 0.80004883 C-1 0 -1 0 0 0 Z " fill="#038778" transform="translate(360,705)"/>
<path d="M0 0 C1.98 0.99 1.98 0.99 4 2 C3.01 2.495 3.01 2.495 2 3 C1.67 47.88 1.34 92.76 1 139 C0.67 139 0.34 139 0 139 C0 93.13 0 47.26 0 0 Z " fill="#78805E" transform="translate(891,520)"/>
</svg>
